<?xml version="1.0" encoding="UTF-8"?>
<!DOCTYPE svg PUBLIC "-//W3C//DTD SVG 1.1//EN" "http://www.w3.org/Graphics/SVG/1.1/DTD/svg11.dtd">
<!-- Creator: CorelDRAW X8 -->
<svg xmlns="http://www.w3.org/2000/svg" xml:space="preserve" width="0.896661in" height="0.633331in" version="1.1" style="shape-rendering:geometricPrecision; text-rendering:geometricPrecision; image-rendering:optimizeQuality; fill-rule:evenodd; clip-rule:evenodd"
viewBox="0 0 897 633"
 xmlns:xlink="http://www.w3.org/1999/xlink">
 <defs>
  <style type="text/css">
   <![CDATA[
    .str0 {stroke:black;stroke-width:3.33465}
    .fil1 {fill:none}
    .fil0 {fill:#FEFEFE}
   ]]>
  </style>
   <clipPath id="id0">
    <path d="M0 0l897 0 0 633 -897 0 0 -633z"/>
   </clipPath>
 </defs>
 <g id="Layer_x0020_1">
  <metadata id="CorelCorpID_0Corel-Layer"/>
  <polygon class="fil0" points="0,0 897,0 897,633 0,633 "/>
  <g style="clip-path:url(#id0)">
   <g id="_125155360">
    <g>
     <g>
      <path id="1" class="fil1 str0" d="M1343 318c-117,-57 -234,-114 -314,-129 -80,-15 -122,12 -145,55 -24,44 -27,103 -42,155 -14,51 -39,94 -100,84 -61,-9 -157,-71 -229,-118 -71,-47 -117,-79 -163,-98 -47,-19 -93,-25 -122,-57 -29,-31 -40,-88 -50,-141 -9,-53 -17,-103 -33,-148 -16,-45 -40,-86 -43,-135 -4,-49 13,-107 21,-159 8,-52 7,-99 -6,-134 -13,-35 -38,-58 -58,-86 -20,-28 -35,-61 -50,-94"/>
      <path class="fil1 str0" d="M1225 225c-100,-50 -201,-99 -270,-112 -69,-13 -105,10 -125,48 -20,37 -24,89 -36,133 -12,44 -34,81 -86,73 -53,-8 -136,-62 -197,-102 -61,-40 -101,-68 -141,-85 -40,-16 -80,-21 -105,-49 -25,-27 -34,-76 -43,-121 -8,-46 -15,-89 -28,-128 -14,-39 -35,-73 -38,-116 -3,-42 12,-92 18,-137 7,-45 7,-85 -4,-115 -11,-30 -33,-50 -50,-74 -18,-24 -30,-53 -43,-81"/>
      <path class="fil1 str0" d="M1108 131c-85,-42 -170,-83 -227,-94 -58,-11 -89,9 -105,40 -17,32 -20,75 -30,112 -11,37 -29,68 -73,61 -43,-7 -113,-51 -165,-85 -51,-34 -84,-57 -118,-71 -33,-14 -67,-19 -88,-41 -20,-23 -29,-64 -36,-102 -7,-39 -12,-75 -24,-107 -11,-33 -29,-62 -31,-97 -3,-36 9,-78 15,-116 6,-37 5,-71 -4,-96 -9,-25 -27,-42 -42,-62 -14,-21 -25,-44 -36,-68"/>
      <path class="fil1 str0" d="M990 37c-68,-33 -137,-67 -183,-76 -47,-8 -72,7 -85,33 -14,25 -16,60 -24,90 -9,30 -23,55 -59,49 -35,-5 -92,-41 -133,-68 -42,-28 -69,-47 -96,-58 -27,-11 -54,-15 -71,-33 -16,-18 -23,-51 -29,-83 -5,-31 -10,-60 -19,-86 -9,-26 -23,-50 -25,-78 -3,-29 7,-63 12,-93 5,-31 4,-58 -3,-78 -8,-21 -23,-34 -34,-51 -12,-16 -21,-35 -29,-54"/>
     </g>
     <g>
      <path class="fil1 str0" d="M1371 296c-118,-58 -235,-115 -315,-130 -79,-15 -122,12 -145,55 -23,44 -27,104 -41,155 -15,51 -40,94 -101,85 -60,-10 -157,-71 -228,-118 -71,-47 -117,-79 -164,-99 -46,-19 -92,-25 -121,-57 -29,-31 -41,-88 -50,-141 -10,-53 -18,-103 -34,-148 -15,-45 -39,-85 -43,-134 -4,-49 13,-107 21,-160 8,-52 8,-98 -5,-133 -13,-35 -38,-59 -58,-87 -20,-28 -35,-60 -50,-93"/>
      <path class="fil1 str0" d="M1253 202c-101,-49 -202,-99 -271,-112 -68,-13 -105,11 -125,48 -20,37 -23,89 -36,133 -12,44 -34,81 -86,73 -52,-8 -135,-61 -197,-102 -61,-40 -101,-68 -141,-84 -39,-17 -79,-22 -104,-49 -25,-27 -35,-76 -43,-122 -8,-46 -15,-89 -29,-127 -14,-39 -34,-74 -37,-116 -3,-42 11,-92 18,-137 7,-45 6,-86 -5,-116 -11,-30 -33,-50 -50,-74 -17,-24 -30,-52 -43,-80"/>
      <path class="fil1 str0" d="M1135 108c-84,-41 -169,-83 -227,-93 -57,-11 -88,8 -105,40 -16,31 -19,74 -30,111 -10,37 -28,68 -72,61 -44,-6 -114,-51 -165,-85 -52,-34 -85,-57 -118,-71 -34,-14 -67,-18 -88,-41 -21,-23 -29,-64 -36,-102 -7,-38 -13,-74 -24,-107 -12,-32 -29,-62 -32,-97 -2,-36 10,-77 16,-115 5,-38 5,-72 -4,-97 -10,-25 -28,-42 -42,-62 -15,-20 -26,-44 -36,-68"/>
      <path class="fil1 str0" d="M1018 14c-69,-33 -137,-66 -184,-75 -46,-9 -71,7 -85,32 -13,25 -15,60 -24,90 -8,30 -23,55 -58,50 -36,-6 -92,-42 -134,-69 -41,-27 -68,-46 -95,-57 -27,-12 -54,-15 -71,-34 -17,-18 -24,-51 -29,-82 -6,-31 -10,-60 -20,-87 -9,-26 -23,-49 -25,-78 -2,-29 8,-62 12,-93 5,-30 5,-58 -3,-78 -7,-20 -22,-34 -34,-50 -11,-17 -20,-36 -29,-55"/>
     </g>
    </g>
   </g>
  </g>
  <polygon class="fil1" points="0,0 897,0 897,633 0,633 "/>
 </g>
</svg>
