<svg id="Layer_1" data-name="Layer 1" xmlns="http://www.w3.org/2000/svg" xmlns:xlink="http://www.w3.org/1999/xlink" viewBox="0 0 1296.24 777.33"><defs><clipPath id="clip-path"><rect x="0.46" y="-0.04" width="1293.57" height="779.06" fill="none"/></clipPath></defs><title>login</title><g id="Layer_1-2" data-name="Layer_1"><polygon points="0.46 -0.04 1294.03 -0.04 1294.03 779.01 0.46 779.01 0.46 -0.04" fill="#fefefe" fill-rule="evenodd"/><g clip-path="url(#clip-path)"><g id="_607004096" data-name=" 607004096"><path d="M1937.21,391.33c-168.72-70.15-337.45-140.3-452.82-158.77s-175.94,14.77-209.1,67.69C1240.68,354.41,1236.35,427,1214.72,491c-20.19,62.77-56.24,115.69-144.21,103.38-88-11.08-226.41-87.38-330.25-145.23C637.87,391.33,571.54,352,505.2,328.56c-67.78-23.38-134.12-30.77-175.94-70.15-41.82-38.15-57.68-108.31-72.1-173.53-13-65.23-24.52-126.77-47.59-182.15s-57.69-105.85-62-166.15c-5.77-60.31,18.74-131.69,30.28-195.69s10.1-121.84-8.65-164.92-54.8-71.38-83.64-105.84S35.07-804.95,13.44-845.56" fill="none" stroke="#000" stroke-width="3.33"/><path d="M1767.05,276.87C1622.83,215.33,1477.18,155,1377.68,139s-151.43,12.31-180.27,59.07c-28.84,45.54-34.61,109.54-51.91,163.69s-49,99.69-124,89.85C945,441.79,825.35,375.33,737.38,326.1S591.73,242.41,534,221.49c-57.68-19.69-115.37-25.85-151.42-60.31-36.05-33.23-49-93.53-62-148.92C309.07-44.35,299-97.27,280.23-145.27c-20.19-48-50.47-89.85-54.8-142.77-4.33-51.69,15.86-113.23,26-168.61s10.09-104.61-5.77-141.53S198-659.72,173.51-689.26c-25.95-29.54-43.26-65.23-62-99.69" fill="none" stroke="#000" stroke-width="3.33"/><path d="M1598.32,161.18C1475.74,109.49,1353.16,59,1271,45.49,1187.32,32,1142.61,56.57,1119.54,94.72,1095,134.11,1090.7,187,1076.28,232.56c-15.87,45.54-41.83,83.69-105.28,75.08C909,299,808,244.87,733.05,203c-73.54-41.85-121.13-70.16-170.17-87.39C515.29,98.41,466.26,92.26,436,65.18c-28.84-28.3-41.82-78.76-51.92-125.53-10.09-48-17.3-92.31-34.61-131.69-15.86-40.61-41.82-76.31-44.7-119.38-4.33-44.31,13-96,21.63-142.77,8.65-45.53,7.21-87.38-5.77-118.15S281.67-624,260-648.64c-20.19-25.85-36.05-54.16-51.92-83.69" fill="none" stroke="#000" stroke-width="3.33"/><path d="M1428.15,45.49C1330.09,4.88,1230.58-37,1164.24-48c-67.78-9.85-103.83,8.61-122.58,40.61-20.19,30.77-23.07,73.84-34.61,110.77-13,36.92-33.16,67.69-85.08,60.3C871.5,157.49,789.3,113.18,730.17,80,669.6,45.49,630.66,22.11,591.73,8.57S513.85-9.89,489.34-32C466.26-54.2,456.17-94.81,447.51-134.2,440.3-172.35,433.09-208,420.11-240S387-301.58,384.06-336c-4.32-35.69,10.1-77.53,17.31-114.45,7.21-38.16,5.77-71.39-4.33-96-11.54-25.85-33.17-41.85-49-62.77-17.31-19.69-30.29-43.08-41.82-66.46" fill="none" stroke="#000" stroke-width="3.33"/><path d="M1977.59,364.25c-170.16-71.38-338.89-141.53-454.26-160C1409.4,185.8,1347.39,219,1314.22,272c-33.17,54.15-38.93,128-59.12,190.76-21.63,62.77-57.69,115.69-145.66,104.61C1022.92,555,883,479.94,780.64,422.1s-168.72-97.23-236.5-121.85c-66.34-23.38-132.68-30.76-174.5-70.15C327.82,192,310.51,121.8,297.54,56.57c-14.43-65.23-26-126.77-49-182.15-21.63-55.38-56.24-104.61-62-164.92s18.75-131.69,30.29-196.92c11.53-64,11.53-120.61-7.21-163.68s-54.8-72.62-83.65-107.08S75.45-832,53.82-872.64" fill="none" stroke="#000" stroke-width="3.33"/><path d="M1807.43,248.56c-145.66-60.3-291.31-121.84-390.82-137.84-98.06-16-151.42,13.54-180.26,59.08s-33.17,109.53-51.92,163.68c-17.3,54.16-49,99.69-124,89.85S865.73,348.25,776.32,297.79c-88-49.23-145.66-83.69-203.34-103.38-56.24-20.92-113.93-27.07-150-60.3S372.53,40.57,361-16s-21.63-109.54-41.82-156.31c-20.19-48-49-91.07-53.36-142.76s15.86-113.23,26-168.61,8.65-105.85-7.21-142.77S237-688,212.45-717.56s-43.26-64-62-98.46" fill="none" stroke="#000" stroke-width="3.33"/><path d="M1637.26,132.87C1516.12,82.41,1393.54,30.72,1309.9,18.42,1227.7,4.88,1183,28.26,1158.48,67.65c-23.08,38.15-27.4,91.07-43.27,136.61-14.42,45.53-40.38,83.69-103.83,75.07-63.45-7.38-164.4-62.77-238-104.61-75-41.85-122.58-70.15-170.17-87.38-49-17.23-96.62-22.16-126.9-50.46S434.54-41.89,424.44-88.66c-10.09-48-18.75-91.07-34.61-131.69-17.3-39.38-41.82-76.3-46.15-119.38-2.88-44.3,14.42-94.76,23.08-141.53C374-528,374-569.88,361-600.64c-14.42-30.77-40.38-51.7-60.57-76.31-21.63-24.61-37.5-54.15-51.92-83.69" fill="none" stroke="#000" stroke-width="3.33"/><path d="M1468.53,17.19C1369-23.43,1271-64,1203.18-75.12c-66.34-11.08-102.39,8.62-122.58,39.38C1061.85-5,1059,38.11,1046,75c-11.54,36.92-33.17,67.69-83.64,61.54-51.92-7.39-132.68-51.69-193.24-84.92C710,18.42,671-5,632.11-18.51,593.17-33.27,554.23-37,529.72-60.35,505.2-82.5,495.1-123.12,487.89-161.27c-8.65-38.15-14.42-73.85-28.84-107.08-13-32-33.17-60.3-36.05-96s11.54-76.31,17.3-114.46c7.21-36.92,7.21-71.38-4.32-96-10.1-24.61-31.73-41.84-49-61.54-15.87-20.92-28.85-44.3-41.82-67.69" fill="none" stroke="#000" stroke-width="3.33"/></g></g><polygon points="0.46 -0.04 1294.03 -0.04 1294.03 779.01 0.46 779.01 0.46 -0.04" fill="none"/></g></svg>