<?xml version="1.0" encoding="utf-8"?>
<!-- Generator: Adobe Illustrator 23.0.1, SVG Export Plug-In . SVG Version: 6.00 Build 0)  -->
<svg version="1.1" id="Layer_1" xmlns="http://www.w3.org/2000/svg" xmlns:xlink="http://www.w3.org/1999/xlink" x="0px" y="0px"
	 viewBox="0 0 1296.2 777.3" style="enable-background:new 0 0 1296.2 777.3;" xml:space="preserve">
<style type="text/css">
	.st0{fill-rule:evenodd;clip-rule:evenodd;fill:#FEFEFE;}
	.st1{clip-path:url(#SVGID_2_);}
	.st2{fill:none;stroke:#000000;stroke-width:3.3347;}
	.st3{fill:none;}
</style>
<g id="Layer_x0020_1">
	<polygon class="st0" points="0.5,0 1294,0 1294,779 0.5,779 	"/>
	<g>
		<defs>
			<rect id="SVGID_1_" x="0.5" y="0" width="1293.6" height="779.1"/>
		</defs>
		<clipPath id="SVGID_2_">
			<use xlink:href="#SVGID_1_"  style="overflow:visible;"/>
		</clipPath>
		<g class="st1">
			<g id="_607004096">
				<g>
					<path class="st2" d="M1937.2,391.3c-168.7-70.2-337.5-140.3-452.8-158.8c-115.4-18.5-175.9,14.8-209.1,67.7
						c-34.6,54.2-38.9,126.8-60.6,190.8c-20.2,62.8-56.2,115.7-144.2,103.4c-88-11.1-226.4-87.4-330.2-145.2
						c-102.4-57.8-168.7-97.2-235.1-120.6c-67.8-23.4-134.1-30.8-175.9-70.2c-41.8-38.2-57.7-108.3-72.1-173.5
						c-13-65.2-24.5-126.8-47.6-182.1s-57.7-105.8-62-166.1c-5.8-60.3,18.7-131.7,30.3-195.7S187.9-581,169.2-624
						c-18.7-43.1-54.8-71.4-83.6-105.8c-28.8-34.5-50.5-75.1-72.1-115.7"/>
					<path class="st2" d="M1767,276.9C1622.8,215.3,1477.2,155,1377.7,139s-151.4,12.3-180.3,59.1c-28.8,45.5-34.6,109.5-51.9,163.7
						s-49,99.7-124,89.8c-76.4-9.8-196.1-76.3-284.1-125.5S591.7,242.4,534,221.5c-57.7-19.7-115.4-25.8-151.4-60.3
						c-36.1-33.2-49-93.5-62-148.9C309.1-44.4,299-97.3,280.2-145.3c-20.2-48-50.5-89.8-54.8-142.8c-4.3-51.7,15.9-113.2,26-168.6
						c10.1-55.4,10.1-104.6-5.8-141.5s-47.6-61.5-72.1-91.1c-26-29.5-43.3-65.2-62-99.7"/>
					<path class="st2" d="M1598.3,161.2C1475.7,109.5,1353.2,59,1271,45.5c-83.6-13.5-128.3,11.1-151.4,49.2
						c-24.5,39.4-28.8,92.3-43.3,137.8c-15.9,45.5-41.8,83.7-105.3,75.1C909,299,808,244.9,733.1,203
						c-73.5-41.8-121.1-70.2-170.2-87.4C515.3,98.4,466.3,92.3,436,65.2c-28.8-28.3-41.8-78.8-51.9-125.5
						c-10.1-48-17.3-92.3-34.6-131.7c-15.9-40.6-41.8-76.3-44.7-119.4c-4.3-44.3,13-96,21.6-142.8c8.7-45.5,7.2-87.4-5.8-118.2
						c-13-30.8-38.9-51.7-60.6-76.3c-20.2-25.8-36.1-54.2-51.9-83.7"/>
					<path class="st2" d="M1428.2,45.5C1330.1,4.9,1230.6-37,1164.2-48c-67.8-9.8-103.8,8.6-122.6,40.6
						c-20.2,30.8-23.1,73.8-34.6,110.8c-13,36.9-33.2,67.7-85.1,60.3c-50.5-6.2-132.7-50.5-191.8-83.7
						c-60.6-34.5-99.5-57.8-138.4-71.4C552.8-5,513.9-9.9,489.3-32c-23.1-22.2-33.2-62.8-41.8-102.2c-7.2-38.2-14.4-73.8-27.4-105.8
						s-33.2-61.5-36.1-96c-4.3-35.7,10.1-77.5,17.3-114.5c7.2-38.2,5.8-71.4-4.3-96c-11.5-25.8-33.2-41.8-49-62.8
						c-17.3-19.7-30.3-43.1-41.8-66.5"/>
				</g>
				<g>
					<path class="st2" d="M1977.6,364.3c-170.2-71.4-338.9-141.5-454.3-160c-113.9-18.5-175.9,14.8-209.1,67.7
						c-33.2,54.2-38.9,128-59.1,190.8c-21.6,62.8-57.7,115.7-145.7,104.6C1022.9,555,883,479.9,780.6,422.1s-168.7-97.2-236.5-121.8
						c-66.3-23.4-132.7-30.8-174.5-70.2c-41.8-38.2-59.1-108.3-72.1-173.5c-14.4-65.2-26-126.8-49-182.1
						c-21.6-55.4-56.2-104.6-62-164.9c-5.8-60.3,18.7-131.7,30.3-196.9c11.5-64,11.5-120.6-7.2-163.7
						c-18.7-43.1-54.8-72.6-83.6-107.1S75.5-832,53.8-872.6"/>
					<path class="st2" d="M1807.4,248.6c-145.7-60.3-291.3-121.8-390.8-137.8c-98.1-16-151.4,13.5-180.3,59.1
						c-28.8,45.5-33.2,109.5-51.9,163.7c-17.3,54.2-49,99.7-124,89.8s-194.7-75.1-284.1-125.5c-88-49.2-145.7-83.7-203.3-103.4
						c-56.2-20.9-113.9-27.1-150-60.3S372.5,40.6,361-16c-11.5-56.6-21.6-109.5-41.8-156.3c-20.2-48-49-91.1-53.4-142.8
						s15.9-113.2,26-168.6c10.1-55.4,8.7-105.8-7.2-142.8S237-688,212.5-717.6c-24.5-29.5-43.3-64-62-98.5"/>
					<path class="st2" d="M1637.3,132.9c-121.1-50.5-243.7-102.2-327.4-114.5c-82.2-13.5-126.9,9.8-151.4,49.2
						c-23.1,38.2-27.4,91.1-43.3,136.6c-14.4,45.5-40.4,83.7-103.8,75.1c-63.5-7.4-164.4-62.8-237.9-104.6
						c-75-41.8-122.6-70.2-170.2-87.4c-49-17.2-96.6-22.2-126.9-50.5c-30.3-28.3-41.8-78.8-51.9-125.5
						c-10.1-48-18.7-91.1-34.6-131.7c-17.3-39.4-41.8-76.3-46.1-119.4c-2.9-44.3,14.4-94.8,23.1-141.5c7.2-46.8,7.2-88.6-5.8-119.4
						c-14.4-30.8-40.4-51.7-60.6-76.3c-21.6-24.6-37.5-54.2-51.9-83.7"/>
					<path class="st2" d="M1468.5,17.2C1369-23.4,1271-64,1203.2-75.1c-66.3-11.1-102.4,8.6-122.6,39.4C1061.9-5,1059,38.1,1046,75
						c-11.5,36.9-33.2,67.7-83.6,61.5c-51.9-7.4-132.7-51.7-193.2-84.9C710,18.4,671-5,632.1-18.5C593.2-33.3,554.2-37,529.7-60.4
						c-24.5-22.2-34.6-62.8-41.8-100.9c-8.7-38.2-14.4-73.8-28.8-107.1c-13-32-33.2-60.3-36.1-96s11.5-76.3,17.3-114.5
						c7.2-36.9,7.2-71.4-4.3-96c-10.1-24.6-31.7-41.8-49-61.5c-15.9-20.9-28.8-44.3-41.8-67.7"/>
				</g>
			</g>
		</g>
	</g>
	<polygon class="st3" points="0.5,0 1294,0 1294,779 0.5,779 	"/>
</g>
</svg>
