<svg id="Layer_1" data-name="Layer 1" xmlns="http://www.w3.org/2000/svg" xmlns:xlink="http://www.w3.org/1999/xlink" viewBox="0 0 723.68 706.63"><defs><clipPath id="clip-path" transform="translate(-1 373.84)"><rect x="1" y="-0.19" width="473" height="332.98" fill="none"/></clipPath></defs><title>trans_lines2</title><g id="Layer_1-2" data-name="Layer_1"><g clip-path="url(#clip-path)"><g id="_125145232" data-name=" 125145232"><path d="M709.18,167.09c-61.69-30-123.39-60-165.57-67.86s-64.34,6.31-76.47,28.93c-12.65,23.14-14.23,54.18-22.14,81.53-7.38,26.83-20.57,49.45-52.73,44.19-32.17-4.73-82.79-37.35-120.76-62.07-37.44-24.72-61.69-41.56-85.95-51.55-24.78-10-49-13.15-64.33-30C105.94,94,100.13,64,94.86,36.1c-4.74-27.88-9-54.18-17.4-77.85S56.37-87,54.79-112.76C52.68-138.54,61.64-169,65.86-196.4s3.69-52.08-3.16-70.49-20-30.51-30.59-45.24S13.66-344.22,5.75-361.58" transform="translate(-1 373.84)" fill="none" stroke="#000" stroke-width="3.33"/><path d="M647,118.16c-52.73-26.3-106-52.07-142.38-58.91s-55.36,5.26-65.91,25.25c-10.55,19.46-12.66,46.82-19,70s-17.93,42.61-45.35,38.4c-27.95-4.21-71.72-32.61-103.88-53.65s-53.26-35.77-74.35-44.72c-21.1-8.41-42.19-11-55.37-25.77-13.18-14.21-17.93-40-22.68-63.65-4.21-24.2-7.91-46.82-14.76-67.33-7.38-20.52-18.46-38.41-20-61-1.58-22.1,5.8-48.4,9.49-72.07s3.69-44.71-2.11-60.5-17.4-26.3-26.36-38.92c-9.49-12.63-15.82-27.88-22.68-42.61" transform="translate(-1 373.84)" fill="none" stroke="#000" stroke-width="3.33"/><path d="M585.26,68.72c-44.82-22.1-89.64-43.66-119.7-49.45C435,13.48,418.63,24,410.2,40.31c-9,16.83-10.55,39.45-15.82,58.92-5.8,19.46-15.3,35.77-38.5,32.09-22.67-3.69-59.58-26.83-87-44.72-26.9-17.88-44.3-30-62.23-37.35-17.4-7.36-35.33-10-46.4-21.56C149.7,15.59,145-6,141.27-26c-3.7-20.51-6.33-39.45-12.66-56.28-5.8-17.36-15.29-32.62-16.35-51-1.58-18.94,4.75-41,7.91-61,3.17-19.46,2.64-37.35-2.11-50.5s-14.23-22.09-22.14-32.61c-7.39-11-13.19-23.15-19-35.77" transform="translate(-1 373.84)" fill="none" stroke="#000" stroke-width="3.33"/><path d="M523,19.27c-35.86-17.36-72.24-35.24-96.5-40-24.78-4.21-38,3.68-44.82,17.36C374.34,9.8,373.28,28.21,369.06,44,364.32,59.77,356.94,72.93,338,69.77,319.5,67.14,289.44,48.2,267.82,34,245.67,19.27,231.44,9.28,217.2,3.49S188.72-4.4,179.76-13.87c-8.44-9.47-12.13-26.83-15.29-43.66-2.64-16.31-5.28-31.56-10-45.24s-12.13-26.3-13.18-41c-1.59-15.26,3.69-33.14,6.32-48.92,2.64-16.31,2.11-30.51-1.58-41-4.22-11.05-12.13-17.89-17.93-26.83C121.75-269,117-279,112.79-289" transform="translate(-1 373.84)" fill="none" stroke="#000" stroke-width="3.33"/></g><g id="_125144200" data-name=" 125144200"><path d="M724,155.51C661.72,125,600,95,557.84,87.13c-41.65-7.89-64.33,6.31-76.46,28.93-12.13,23.15-14.24,54.71-21.62,81.54-7.91,26.82-21.09,49.44-53.26,44.71-31.63-5.26-82.78-37.35-120.22-62.07s-61.7-41.56-86.48-52.08c-24.26-10-48.52-13.15-63.81-30C120.7,81.87,114.37,51.88,109.63,24c-5.28-27.88-9.5-54.18-17.93-77.85C83.79-77.52,71.13-98.56,69-124.34s6.86-56.28,11.08-84.16c4.22-27.36,4.22-51.55-2.64-70s-20-31-30.58-45.77-18.46-31.56-26.37-48.92" transform="translate(-1 373.84)" fill="none" stroke="#000" stroke-width="3.33"/><path d="M661.72,106.07C608.46,80.29,555.21,54,518.82,47.15,483,40.31,463.45,52.94,452.91,72.4s-12.13,46.82-19,70C427.6,165.51,416,185,388.58,180.76s-71.19-32.09-103.89-53.65c-32.16-21-53.25-35.77-74.35-44.19C189.78,74,168.69,71.35,155.5,57.14S137.05,17.17,132.83-7s-7.91-46.82-15.29-66.81c-7.39-20.51-17.93-38.92-19.51-61s5.8-48.39,9.49-72.06,3.16-45.24-2.64-61-17.4-26.31-26.36-38.93S62.7-334.22,55.84-348.95" transform="translate(-1 373.84)" fill="none" stroke="#000" stroke-width="3.33"/><path d="M599.5,56.62C555.21,35.05,510.38,13,479.8,7.7c-30.06-5.79-46.4,4.21-55.37,21-8.43,16.31-10,38.93-15.82,58.39-5.27,19.46-14.76,35.77-38,32.09-23.21-3.16-60.12-26.83-87-44.72-27.42-17.88-44.82-30-62.22-37.34-17.93-7.37-35.33-9.47-46.41-21.57s-15.29-33.67-19-53.66c-3.69-20.51-6.85-38.92-12.66-56.28-6.32-16.84-15.29-32.62-16.87-51-1-18.94,5.27-40.5,8.44-60.49,2.63-20,2.63-37.88-2.11-51C127.56-270,118.06-279,110.68-289.51,102.77-300,97-312.66,91.7-325.28" transform="translate(-1 373.84)" fill="none" stroke="#000" stroke-width="3.33"/><path d="M537.8,7.17c-36.38-17.36-72.24-34.72-97-39.45C416.52-37,403.34-28.6,396-15.45,389.1-2.3,388.05,16.11,383.3,31.9c-4.22,15.78-12.13,28.93-30.58,26.3-19-3.16-48.51-22.1-70.66-36.3C260.44,7.7,246.2-2.3,232-8.08,217.73-14.4,203.49-16,194.52-26c-9-9.47-12.65-26.83-15.29-43.13-3.16-16.31-5.27-31.57-10.54-45.77-4.75-13.68-12.13-25.77-13.19-41s4.22-32.61,6.33-48.92c2.64-15.78,2.64-30.51-1.58-41-3.69-10.52-11.6-17.89-17.93-26.3-5.8-9-10.55-18.94-15.29-28.93" transform="translate(-1 373.84)" fill="none" stroke="#000" stroke-width="3.33"/></g></g><polygon points="0 373.65 473 373.65 473 706.63 0 706.63 0 373.65" fill="none"/></g></svg>